<?xml version="1.0" encoding="utf-8"?>
<!-- Generator: Adobe Illustrator 21.0.0, SVG Export Plug-In . SVG Version: 6.00 Build 0)  -->
<svg version="1.1" id="圖層_2" xmlns="http://www.w3.org/2000/svg" xmlns:xlink="http://www.w3.org/1999/xlink" x="0px" y="0px"
	 viewBox="0 0 429 110" style="enable-background:new 0 0 429 110;" xml:space="preserve">
<style type="text/css">
	.st0{fill:#282828;}
	.st1{fill:#F15A24;}
</style>
<g>
	<path class="st0" d="M101.5,71.8c-3.7-21.7-24-40.6-24.7-42.7c-0.4-1.1-1.1-5.6-2.2-9C72.6,14.1,64.1,0,64.1,0s-5.4,20.9-7.5,26.9
		c0,0-24.3,2.6-24.7,3c-0.4,0.4,4.5,12,4.5,12L0.5,44.1c0,0,8.2,35.9,9,37.4c0.7,1.5,10.5,5.2,10.5,5.2l19.5,0.7l0.4,22.1
		c0.8-7.4,2.5-26.3,7.5-35.2C54,62.5,60.7,52,60.7,52l1.5,18c0,0,15-0.2,15.7,0c2.2,0.7,5.2,2.2,6.7,4.5c1.5,2.2,1.5,9,5.2,11.2
		c3.7,2.2,10.5,11.2,3,16.5c-7.5,5.2-19.5,6.7-19.5,6.7v1.1h34C107.5,110,105.3,93.5,101.5,71.8z"/>
	<polygon class="st1" points="79.4,84.9 71.6,84.9 71.6,77.1 61.9,77.1 61.9,84.9 54,84.9 54,94.7 61.9,94.7 61.9,102.5 71.6,102.5 
		71.6,94.7 79.4,94.7 	"/>
</g>
<g>
	<g>
		<path class="st0" d="M139.7,34.1c3.7,3.4,8.3,8.2,10.4,11.4l-3.1,2.3c-0.6-1-1.4-2.1-2.3-3.2c-21.7,1.1-24.2,1.2-26,1.9
			c-0.2-0.7-0.8-2.6-1.2-3.6c0.9-0.2,1.9-1,3.2-2.2c1.4-1.3,5.8-6.2,8.7-10.9l3.7,1.6c-2.8,4-6.2,7.8-9.4,10.9l18.3-0.7
			c-1.7-1.9-3.5-3.8-5.2-5.4L139.7,34.1z M120.4,49.5H146v16.7h-3.9v-2h-17.9v2.1h-3.7V49.5z M124.1,53v7.7h17.9V53H124.1z"/>
		<path class="st0" d="M188.6,37v18.9h-3.8v-2.1h-10.3v12.5h-3.8V53.7h-10.2V56h-3.7V37h13.9v-6.9h3.8V37H188.6z M170.6,50.1v-9.5
			h-10.2v9.5H170.6z M184.7,50.1v-9.5h-10.3v9.5H184.7z"/>
		<path class="st0" d="M229.4,39c0,0,0,1.3,0,1.7c-0.4,16.3-0.8,21.9-2.1,23.6c-0.7,1.2-1.6,1.5-2.8,1.7c-1.2,0.2-3,0.2-4.9,0
			c-0.1-1-0.5-2.5-1-3.5c1.8,0.2,3.4,0.2,4.1,0.2c0.7,0,1-0.1,1.4-0.6c0.9-1.1,1.3-6.1,1.6-19.7h-4.7c-0.5,10.5-2.3,18.9-9.1,24.1
			c-0.6-0.8-1.8-2.1-2.6-2.7c0.2-0.2,0.5-0.4,0.7-0.6c-5.7,0.7-11.4,1.3-15.6,1.7l-0.5-3.1c2.3-0.2,5.1-0.4,8.2-0.7v-3h-7.2v-2.7
			h7.2v-2h-7.1V41.5h7.1v-2.1h-8.1v-2.7h8.1v-2.2c-2.4,0.2-4.8,0.3-7,0.4c-0.1-0.7-0.5-1.9-0.9-2.6c5.8-0.3,12.8-1,16.9-1.9l1.7,2.8
			c-2.1,0.4-4.7,0.8-7.4,1.1v2.5h8V39h4.1c0-2.7,0-5.5,0-8.4h3.5c0,2.9,0,5.8-0.1,8.4H229.4z M198.2,46.3h4.1v-2.4h-4.1V46.3z
			 M202.3,51v-2.4h-4.1V51H202.3z M205.6,60.8c2.4-0.2,5-0.5,7.5-0.7c3.2-4.5,4.2-10.4,4.5-17.6h-4.2v-3h-7.8v2.1h7.3v11.9h-7.3v2
			h7.4v2.7h-7.4V60.8z M209.8,46.3v-2.4h-4.2v2.4H209.8z M205.6,48.6V51h4.2v-2.4H205.6z"/>
		<path class="st0" d="M248.5,50.6c-1.5,0.5-3.1,1-4.6,1.5v14.1h-3.4V53.2l-6.2,1.9l-0.9-3.5c2-0.5,4.5-1.2,7.1-1.9v-8.3h-3.2
			c-0.5,2.1-1,4-1.6,5.5c-0.6-0.5-1.9-1.3-2.7-1.7c1.4-3.2,2.1-8.2,2.5-12.9l3.1,0.5c-0.2,1.7-0.4,3.4-0.6,5h2.5v-7.8h3.4v7.8h3.7
			v3.5h-3.7v7.3l4.1-1.2L248.5,50.6z M269.4,36.4c0,0,0,1.3,0,1.7c-0.9,17.7-1.6,23.9-3.2,25.9c-0.8,1.2-1.6,1.5-2.9,1.7
			c-1.1,0.2-2.7,0.2-4.5,0.1c0-1.1-0.4-2.6-1-3.6c1.7,0.2,3.1,0.2,3.9,0.2c0.6,0,1-0.2,1.4-0.7c1.1-1.3,2-6.9,2.7-21.9h-1.1
			c-2,10.2-6.2,20.5-12.6,25.7c-0.7-0.7-2-1.6-3-2.2c6.4-4.5,10.5-14,12.5-23.5h-2.6c-1.7,6.6-5.2,13.8-9.3,17.6
			c-0.7-0.7-1.9-1.6-2.8-2.1c4.1-3.2,7.3-9.4,9.1-15.5H253c-1.2,2.8-2.6,5.3-4.3,7.3c-0.6-0.5-2.1-1.6-2.8-2.1
			c3.2-3.5,5.4-9.1,6.7-14.9l3.3,0.6c-0.4,2-1,3.9-1.6,5.7H269.4z"/>
		<path class="st0" d="M295.9,51.3v1.5h9.2v13.3h-3.4v-1.3h-21.6v1.3h-3.3V52.9h9.9v-1.5h-13.8v-2.4H309v2.4H295.9z M275.1,33.4
			h-1.2v-2.2h17.5v2.2H278v10.1c0,1.4,0.3,1.9,1.7,1.9h0.8h7.1c1.1,0,2.9,0,3.7-0.2c0.1,0.8,0.2,1.7,0.3,2.3
			c-0.7,0.2-2.3,0.2-3.8,0.2h-8.2c-3.4,0-4.4-1.1-4.4-4.2V33.4z M281.6,37c-0.4,0.6-0.9,1.1-1.3,1.6c-0.4-0.4-1.4-0.9-1.9-1.1
			c1.2-1.1,2.2-2.5,2.7-3.9l2.2,0.5c-0.2,0.4-0.3,0.7-0.5,1.1h7.3V37H286v1.8h4.7v1.9h-4.7c1.6,0.9,3.3,2.1,4.3,3l-1.5,1.7
			c-0.9-0.9-2.4-2-4-3c-0.8,1.1-2.2,2.2-4.5,3.2c-0.3-0.6-1-1.3-1.6-1.8c2.7-0.7,3.9-1.9,4.4-3h-4.5v-1.9h4.9v0V37H281.6z
			 M301.7,62.8v-4.3h-0.2h-4.7c-3.1,0-3.8-0.5-3.8-2.7v-0.8h-3.5c-0.4,2-2.4,3.5-7.8,4.3c-0.3-0.6-1-1.6-1.6-2.1
			c4.2-0.4,5.8-1.2,6.4-2.2h-6.4v7.8H301.7z M283.2,59.6h16v1.9h-16V59.6z M293.1,51.3h-3.4v1.5h3.4V51.3z M292.5,38.9
			c-0.4-0.7-1.4-1.7-1.9-2.1c3-1.1,3.5-2.4,3.5-3.7v-2h9.8v3.3c0,0.7,0.1,1,0.6,1h1.6c0.5,0,1.3-0.1,1.7-0.2
			c0.1,0.7,0.2,1.7,0.2,2.4c-0.4,0.2-1.1,0.2-1.8,0.2h-2.1c-2.5,0-3-1-3-3.5v-0.7H297c-0.1,1.7-0.8,3.4-3.2,4.8h9.9l0.6-0.1l1.8,0.7
			c-0.9,2.2-2.2,3.9-3.9,5.3c1.8,0.8,3.5,1.6,4.7,2.2l-1.3,2.1c-1.4-0.7-3.4-1.7-5.6-2.8c-2.1,1.3-4.5,2.1-6.9,2.8
			c-0.3-0.7-1-1.7-1.5-2.2c1.9-0.4,3.8-1,5.5-1.8c-1.5-0.7-3-1.3-4.4-1.9l1.3-1.9c1.7,0.6,3.7,1.4,5.6,2.2c1.1-0.8,2-1.7,2.7-2.6
			h-9.6V38.9z M295.9,54.9v0.8c0,0.7,0.2,0.9,1.3,0.9h3.9c0.3,0,0.4,0,0.6,0v-1.7H295.9z"/>
		<path class="st0" d="M325.6,32.9c-1.1,3.2-2.5,7.1-3.7,10.1c2.6,3.2,3.2,6,3.2,8.4c0,2.3-0.5,3.9-1.6,4.8
			c-0.6,0.4-1.3,0.7-2.1,0.8c-0.7,0.1-1.7,0.1-2.6,0.1c0-0.9-0.3-2.3-0.8-3.2c0.8,0,1.5,0.1,2,0c0.5,0,0.8-0.1,1.1-0.3
			c0.6-0.4,0.8-1.4,0.8-2.6c0-2-0.6-4.7-3.2-7.6c1-2.6,2.1-5.9,2.8-8.5h-4.3v31.2h-3.2V31.7h8.8l0.5-0.2L325.6,32.9z M344.7,62.6
			c0.8,0,0.9-0.6,1-4.9c0.7,0.6,2.2,1.1,3.1,1.3c-0.3,5.3-1.1,6.6-3.7,6.6h-3.2c-3,0-3.7-1-3.7-4.3v-9.3h-3.4
			c-0.6,6.9-2.5,11.5-10,14.1c-0.4-0.9-1.3-2.2-2.1-2.9c6.5-2.1,8-5.6,8.5-11.2h-5.1v-3.3h22.2v3.3h-6.6v9.3c0,1.1,0.1,1.2,0.9,1.2
			H344.7z M329.1,42H326v-7.3h9.6c-0.5-1.3-1.2-2.9-1.9-4.1l3.4-1c0.9,1.6,2,3.7,2.4,5h8.6V42H345v3h-15.9V42z M329.3,38v3.9h15.2
			V38H329.3z"/>
		<path class="st0" d="M364.1,51.1l0.9,3.2c-4.1,2-8.6,4-12,5.6l-1.5-3.7c1.4-0.5,3.2-1.2,5.2-2.1V42.8h-4.5v-3.5h4.5v-8.8h3.4v8.8
			h4v3.5h-4v9.9L364.1,51.1z M382,62.2c2.2,0,2.6-1,2.9-5.3c0.8,0.6,2.2,1.1,3.2,1.3c-0.5,5.4-1.6,7.2-5.9,7.2h-9.1
			c-4.9,0-6.2-1.2-6.2-6V48.1l-2.7,1.2l-1.4-3.3l4.1-1.7V33.8h3.5v9l4.4-1.9V30.1h3.4v9.4l5.3-2.2l2.7,0.9l-0.2,0.6
			c-0.3,5.5-0.9,12.7-1.9,17.2l-3-0.8c0.6-3.4,1-8.9,1.2-13.7l-4.2,1.8v14.2h-3.4V44.7l-4.4,1.9v12.9c0,2.2,0.4,2.6,3,2.6H382z"/>
		<path class="st0" d="M425.9,31.5v34.7h-3.5v-1.5h-26v1.5h-3.4V31.5H425.9z M422.3,61.7V34.6h-26v27.1H422.3z M420.8,43.9V46h-23
			v-2.1h9.7v-1.5h-6.2v-6.2h15.6v6.2h-6.4v1.5H420.8z M400.2,47.4h18.2V60h-18.2V47.4z M403,57.8h12.3v-8.2H403V57.8z M404.4,40.3
			h9.5v-2.1h-9.5V40.3z M405.1,51h8.2v5.3h-8.2V51z M407.2,54.6h3.8v-1.9h-3.8V54.6z"/>
	</g>
</g>
<g>
	<path class="st0" d="M123.3,78.4h-4.2v-1.9h10.7v1.9h-4.2v12.4h-2.3V78.4z"/>
	<path class="st0" d="M129.9,88c0-2.3,1.9-3.5,6.4-4c0-1.2-0.5-2.3-2-2.3c-1.1,0-2.2,0.5-3.1,1.1l-0.8-1.5c1.1-0.7,2.6-1.4,4.3-1.4
		c2.7,0,3.9,1.7,3.9,4.5v6.4h-1.8l-0.2-1.2h-0.1c-1,0.8-2.1,1.5-3.4,1.5C131.2,91.1,129.9,89.9,129.9,88z M136.3,88.1v-2.6
		c-3.2,0.4-4.2,1.2-4.2,2.4c0,1.1,0.7,1.5,1.7,1.5C134.7,89.3,135.4,88.9,136.3,88.1z"/>
	<path class="st0" d="M141.5,76.8c0-0.8,0.6-1.3,1.4-1.3s1.4,0.5,1.4,1.3c0,0.8-0.6,1.3-1.4,1.3S141.5,77.6,141.5,76.8z M141.7,80.1
		h2.2v10.7h-2.2V80.1z"/>
	<path class="st0" d="M146.6,85.5c0-3.6,2.5-5.6,5.3-5.6c1.4,0,2.4,0.5,3.1,1.2l-1.1,1.5c-0.6-0.5-1.2-0.8-1.9-0.8
		c-1.8,0-3.1,1.5-3.1,3.8c0,2.3,1.2,3.8,3,3.8c0.9,0,1.7-0.4,2.3-1l0.9,1.5c-1,0.9-2.3,1.3-3.5,1.3
		C148.8,91.1,146.6,89.1,146.6,85.5z"/>
	<path class="st0" d="M157.4,75.3h2.2v4.1l-0.1,2.1c0.9-0.9,2-1.7,3.5-1.7c2.3,0,3.3,1.5,3.3,4.2v6.7H164v-6.5
		c0-1.8-0.5-2.6-1.8-2.6c-1,0-1.7,0.5-2.6,1.5v7.6h-2.2V75.3z"/>
	<path class="st0" d="M169.3,86.9v-6.7h2.2v6.5c0,1.8,0.5,2.6,1.8,2.6c1,0,1.7-0.5,2.6-1.6v-7.4h2.2v10.7h-1.8l-0.2-1.6h-0.1
		c-1,1.1-2,1.9-3.5,1.9C170.3,91.1,169.3,89.6,169.3,86.9z"/>
	<path class="st0" d="M181.5,80.1h1.8l0.2,1.5h0.1c1-1,2.1-1.8,3.5-1.8c2.3,0,3.3,1.5,3.3,4.2v6.7h-2.2v-6.5c0-1.8-0.5-2.6-1.8-2.6
		c-1,0-1.7,0.5-2.6,1.5v7.6h-2.2V80.1z"/>
	<path class="st0" d="M192.9,92.8c0-0.9,0.6-1.7,1.6-2.3v-0.1c-0.5-0.3-1-0.9-1-1.8c0-0.8,0.6-1.6,1.2-2v-0.1
		c-0.7-0.6-1.4-1.6-1.4-2.9c0-2.4,1.9-3.8,4.1-3.8c0.6,0,1.1,0.1,1.6,0.3h3.8v1.7h-2c0.4,0.4,0.7,1.1,0.7,2c0,2.3-1.8,3.7-4,3.7
		c-0.5,0-1-0.1-1.5-0.3c-0.4,0.3-0.6,0.6-0.6,1.1c0,0.6,0.4,1.1,1.8,1.1h2c2.5,0,3.9,0.8,3.9,2.6c0,2.1-2.2,3.7-5.6,3.7
		C194.8,95.7,192.9,94.7,192.9,92.8z M200.8,92.3c0-0.9-0.7-1.2-2-1.2h-1.6c-0.5,0-1-0.1-1.4-0.2c-0.6,0.5-0.9,1-0.9,1.6
		c0,1.1,1.1,1.7,2.9,1.7C199.5,94.2,200.8,93.3,200.8,92.3z M199.5,83.7c0-1.4-0.9-2.3-2-2.3s-2,0.8-2,2.3s0.9,2.3,2,2.3
		S199.5,85.2,199.5,83.7z"/>
	<path class="st0" d="M207.6,76.5h2.4l2.1,7.4c0.5,1.6,0.8,3,1.3,4.7h0.1c0.5-1.7,0.8-3.1,1.3-4.7l2.1-7.4h2.3l-4.5,14.3h-2.7
		L207.6,76.5z"/>
	<path class="st0" d="M219.8,85.5c0-3.5,2.4-5.6,4.9-5.6c2.8,0,4.4,2,4.4,5.1c0,0.4-0.1,0.9-0.1,1.1h-7c0.2,2,1.5,3.3,3.3,3.3
		c1,0,1.8-0.3,2.6-0.8l0.8,1.4c-1,0.7-2.2,1.1-3.6,1.1C222.1,91.1,219.8,89,219.8,85.5z M227.1,84.5c0-1.8-0.8-2.9-2.4-2.9
		c-1.3,0-2.5,1-2.7,2.9H227.1z"/>
	<path class="st0" d="M231.7,87.4v-5.4h-1.6v-1.7l1.7-0.1l0.3-3h1.9v3h2.8v1.8h-2.8v5.4c0,1.3,0.4,1.9,1.6,1.9
		c0.4,0,0.8-0.1,1.1-0.3l0.4,1.7c-0.6,0.2-1.3,0.4-2.1,0.4C232.5,91.1,231.7,89.6,231.7,87.4z"/>
	<path class="st0" d="M237.9,85.5c0-3.5,2.4-5.6,4.9-5.6c2.8,0,4.4,2,4.4,5.1c0,0.4-0.1,0.9-0.1,1.1h-7c0.2,2,1.5,3.3,3.3,3.3
		c1,0,1.8-0.3,2.6-0.8l0.8,1.4c-1,0.7-2.2,1.1-3.6,1.1C240.3,91.1,237.9,89,237.9,85.5z M245.3,84.5c0-1.8-0.8-2.9-2.4-2.9
		c-1.3,0-2.5,1-2.7,2.9H245.3z"/>
	<path class="st0" d="M249.7,80.1h1.8l0.2,1.9h0.1c0.8-1.4,1.9-2.2,3-2.2c0.5,0,0.9,0.1,1.2,0.2l-0.4,1.9c-0.4-0.1-0.6-0.2-1.1-0.2
		c-0.9,0-1.9,0.6-2.6,2.3v6.7h-2.2V80.1z"/>
	<path class="st0" d="M257.4,76.8c0-0.8,0.6-1.3,1.4-1.3s1.4,0.5,1.4,1.3c0,0.8-0.6,1.3-1.4,1.3S257.4,77.6,257.4,76.8z M257.7,80.1
		h2.2v10.7h-2.2V80.1z"/>
	<path class="st0" d="M263.3,80.1h1.8l0.2,1.5h0.1c1-1,2.1-1.8,3.5-1.8c2.3,0,3.3,1.5,3.3,4.2v6.7h-2.2v-6.5c0-1.8-0.5-2.6-1.8-2.6
		c-1,0-1.7,0.5-2.6,1.5v7.6h-2.2V80.1z"/>
	<path class="st0" d="M274.8,88c0-2.3,1.9-3.5,6.4-4c0-1.2-0.5-2.3-2-2.3c-1.1,0-2.2,0.5-3.1,1.1l-0.8-1.5c1.1-0.7,2.6-1.4,4.3-1.4
		c2.7,0,3.9,1.7,3.9,4.5v6.4h-1.8l-0.2-1.2h-0.1c-1,0.8-2.1,1.5-3.4,1.5C276.1,91.1,274.8,89.9,274.8,88z M281.2,88.1v-2.6
		c-3.2,0.4-4.2,1.2-4.2,2.4c0,1.1,0.7,1.5,1.7,1.5C279.5,89.3,280.3,88.9,281.2,88.1z"/>
	<path class="st0" d="M286.6,80.1h1.8l0.2,1.9h0.1c0.8-1.4,1.9-2.2,3-2.2c0.5,0,0.9,0.1,1.2,0.2l-0.4,1.9c-0.4-0.1-0.6-0.2-1.1-0.2
		c-0.9,0-1.9,0.6-2.6,2.3v6.7h-2.2V80.1z"/>
	<path class="st0" d="M294.1,95.1l0.4-1.8c0.2,0.1,0.5,0.2,0.8,0.2c1.2,0,1.8-0.9,2.2-2l0.2-0.7l-4.2-10.6h2.3l2,5.5
		c0.3,1,0.6,2,1,3h0.1c0.3-1,0.6-2,0.8-3l1.7-5.5h2.2l-3.9,11.4c-0.8,2.3-2,3.8-4.2,3.8C294.9,95.3,294.5,95.3,294.1,95.1z"/>
	<path class="st0" d="M310.1,76.5h2.3v5.9h6.1v-5.9h2.3v14.3h-2.3v-6.5h-6.1v6.5h-2.3V76.5z"/>
	<path class="st0" d="M323.6,85.5c0-3.6,2.4-5.6,5-5.6c2.6,0,5,2.1,5,5.6c0,3.6-2.4,5.6-5,5.6C326,91.1,323.6,89.1,323.6,85.5z
		 M331.4,85.5c0-2.3-1.1-3.8-2.7-3.8c-1.7,0-2.7,1.5-2.7,3.8c0,2.3,1.1,3.8,2.7,3.8C330.3,89.3,331.4,87.8,331.4,85.5z"/>
	<path class="st0" d="M335.1,89.6l1.1-1.4c1,0.7,1.9,1.2,3,1.2c1.3,0,1.9-0.6,1.9-1.4c0-1-1.2-1.4-2.4-1.8c-1.4-0.5-3-1.3-3-3.1
		c0-1.8,1.4-3.1,3.8-3.1c1.4,0,2.6,0.6,3.5,1.3l-1.1,1.4c-0.7-0.5-1.5-0.9-2.4-0.9c-1.2,0-1.7,0.6-1.7,1.3c0,0.9,1.1,1.3,2.2,1.7
		c1.5,0.6,3.2,1.2,3.2,3.3c0,1.8-1.4,3.3-4.1,3.3C337.7,91.1,336.2,90.5,335.1,89.6z"/>
	<path class="st0" d="M345.6,80.1h1.8l0.2,1.2h0.1c0.9-0.8,2.1-1.4,3.3-1.4c2.7,0,4.2,2.2,4.2,5.5c0,3.7-2.2,5.8-4.6,5.8
		c-1,0-1.9-0.4-2.8-1.2l0.1,1.8v3.5h-2.2V80.1z M352.9,85.4c0-2.2-0.7-3.6-2.5-3.6c-0.8,0-1.6,0.4-2.5,1.3v5.2c0.8,0.7,1.7,1,2.3,1
		C351.7,89.3,352.9,87.9,352.9,85.4z"/>
	<path class="st0" d="M357.6,76.8c0-0.8,0.6-1.3,1.4-1.3s1.4,0.5,1.4,1.3c0,0.8-0.6,1.3-1.4,1.3S357.6,77.6,357.6,76.8z M357.9,80.1
		h2.2v10.7h-2.2V80.1z"/>
	<path class="st0" d="M363.8,87.4v-5.4h-1.6v-1.7l1.7-0.1l0.3-3h1.9v3h2.8v1.8H366v5.4c0,1.3,0.4,1.9,1.6,1.9c0.4,0,0.8-0.1,1.1-0.3
		l0.4,1.7c-0.6,0.2-1.3,0.4-2.1,0.4C364.6,91.1,363.8,89.6,363.8,87.4z"/>
	<path class="st0" d="M370.1,88c0-2.3,1.9-3.5,6.4-4c0-1.2-0.5-2.3-2-2.3c-1.1,0-2.2,0.5-3.1,1.1l-0.8-1.5c1.1-0.7,2.6-1.4,4.3-1.4
		c2.7,0,3.9,1.7,3.9,4.5v6.4h-1.8l-0.2-1.2h-0.1c-1,0.8-2.1,1.5-3.4,1.5C371.4,91.1,370.1,89.9,370.1,88z M376.5,88.1v-2.6
		c-3.2,0.4-4.2,1.2-4.2,2.4c0,1.1,0.7,1.5,1.7,1.5C374.8,89.3,375.6,88.9,376.5,88.1z"/>
	<path class="st0" d="M381.9,88.3v-13h2.2v13.1c0,0.6,0.3,0.8,0.5,0.8c0.1,0,0.2,0,0.4,0l0.3,1.7c-0.3,0.1-0.6,0.2-1.2,0.2
		C382.5,91.1,381.9,90.1,381.9,88.3z"/>
	<path class="st0" d="M392.3,76.5h2.6l2.6,7.3c0.3,1,0.6,1.9,1,2.9h0.1c0.3-1,0.6-1.9,0.9-2.9l2.6-7.3h2.6v14.3h-2.1v-7.1
		c0-1.3,0.2-3.1,0.3-4.4h-0.1l-1.1,3.3l-2.5,6.8h-1.4l-2.5-6.8l-1.1-3.3H394c0.1,1.3,0.3,3.2,0.3,4.4v7.1h-2V76.5z"/>
	<path class="st0" d="M407.6,88c0-2.3,1.9-3.5,6.4-4c0-1.2-0.5-2.3-2-2.3c-1.1,0-2.2,0.5-3.1,1.1l-0.8-1.5c1.1-0.7,2.6-1.4,4.3-1.4
		c2.7,0,3.9,1.7,3.9,4.5v6.4h-1.8l-0.2-1.2h-0.1c-1,0.8-2.1,1.5-3.4,1.5C408.9,91.1,407.6,89.9,407.6,88z M414,88.1v-2.6
		c-3.2,0.4-4.2,1.2-4.2,2.4c0,1.1,0.7,1.5,1.7,1.5C412.4,89.3,413.1,88.9,414,88.1z"/>
	<path class="st0" d="M419.4,80.1h1.8l0.2,1.2h0.1c0.9-0.8,2.1-1.4,3.3-1.4c2.7,0,4.2,2.2,4.2,5.5c0,3.7-2.2,5.8-4.6,5.8
		c-1,0-1.9-0.4-2.8-1.2l0.1,1.8v3.5h-2.2V80.1z M426.7,85.4c0-2.2-0.7-3.6-2.5-3.6c-0.8,0-1.6,0.4-2.5,1.3v5.2c0.8,0.7,1.7,1,2.3,1
		C425.5,89.3,426.7,87.9,426.7,85.4z"/>
</g>
</svg>
