<?xml version="1.0" encoding="utf-8"?>
<!-- Generator: Adobe Illustrator 21.0.0, SVG Export Plug-In . SVG Version: 6.00 Build 0)  -->
<svg version="1.1" id="圖層_2" xmlns="http://www.w3.org/2000/svg" xmlns:xlink="http://www.w3.org/1999/xlink" x="0px" y="0px"
	 viewBox="0 0 500 136" style="enable-background:new 0 0 500 136;" xml:space="preserve">
<style type="text/css">
	.st0{fill:#282828;}
	.st1{fill:#F15A24;}
</style>
<g>
	<path class="st0" d="M135.5,84.8c-3.7-21.7-24-40.6-24.7-42.7c-0.4-1.1-1.1-5.6-2.2-9c-2-6.1-10.5-20.2-10.5-20.2
		s-5.4,20.9-7.5,26.9c0,0-24.3,2.6-24.7,3c-0.4,0.4,4.5,12,4.5,12l-35.9,2.2c0,0,8.2,35.9,9,37.4c0.7,1.5,10.5,5.2,10.5,5.2
		l19.5,0.7l0.4,22.1c0.8-7.4,2.5-26.3,7.5-35.2C88,75.5,94.7,65,94.7,65l1.5,18c0,0,15-0.2,15.7,0c2.2,0.7,5.2,2.2,6.7,4.5
		c1.5,2.2,1.5,9,5.2,11.2c3.7,2.2,10.5,11.2,3,16.5c-7.5,5.2-19.5,6.7-19.5,6.7v1.1h34C141.5,123,139.3,106.5,135.5,84.8z"/>
	<polygon class="st1" points="113.4,97.9 105.6,97.9 105.6,90.1 95.9,90.1 95.9,97.9 88,97.9 88,107.7 95.9,107.7 95.9,115.5 
		105.6,115.5 105.6,107.7 113.4,107.7 	"/>
</g>
<g>
	<g>
		<path class="st0" d="M173.7,47.1c3.7,3.4,8.3,8.2,10.4,11.4l-3.1,2.3c-0.6-1-1.4-2.1-2.3-3.2c-21.7,1.1-24.2,1.2-26,1.9
			c-0.2-0.7-0.8-2.6-1.2-3.6c0.9-0.2,1.9-1,3.2-2.2c1.4-1.3,5.8-6.2,8.7-10.9l3.7,1.6c-2.8,4-6.2,7.8-9.4,10.9l18.3-0.7
			c-1.7-1.9-3.5-3.8-5.2-5.4L173.7,47.1z M154.4,62.5H180v16.7h-3.9v-2h-17.9v2.1h-3.7V62.5z M158.1,66v7.7h17.9V66H158.1z"/>
		<path class="st0" d="M222.6,50v18.9h-3.8v-2.1h-10.3v12.5h-3.8V66.7h-10.2V69h-3.7V50h13.9v-6.9h3.8V50H222.6z M204.6,63.1v-9.5
			h-10.2v9.5H204.6z M218.7,63.1v-9.5h-10.3v9.5H218.7z"/>
		<path class="st0" d="M263.4,52c0,0,0,1.3,0,1.7c-0.4,16.3-0.8,21.9-2.1,23.6c-0.7,1.2-1.6,1.5-2.8,1.7c-1.2,0.2-3,0.2-4.9,0
			c-0.1-1-0.5-2.5-1-3.5c1.8,0.2,3.4,0.2,4.1,0.2c0.7,0,1-0.1,1.4-0.6c0.9-1.1,1.3-6.1,1.6-19.7h-4.7c-0.5,10.5-2.3,18.9-9.1,24.1
			c-0.6-0.8-1.8-2.1-2.6-2.7c0.2-0.2,0.5-0.4,0.7-0.6c-5.7,0.7-11.4,1.3-15.6,1.7l-0.5-3.1c2.3-0.2,5.1-0.4,8.2-0.7v-3h-7.2v-2.7
			h7.2v-2h-7.1V54.5h7.1v-2.1h-8.1v-2.7h8.1v-2.2c-2.4,0.2-4.8,0.3-7,0.4c-0.1-0.7-0.5-1.9-0.9-2.6c5.8-0.3,12.8-1,16.9-1.9l1.7,2.8
			c-2.1,0.4-4.7,0.8-7.4,1.1v2.5h8V52h4.1c0-2.7,0-5.5,0-8.4h3.5c0,2.9,0,5.8-0.1,8.4H263.4z M232.2,59.3h4.1v-2.4h-4.1V59.3z
			 M236.3,64v-2.4h-4.1V64H236.3z M239.6,73.8c2.4-0.2,5-0.5,7.5-0.7c3.2-4.5,4.2-10.4,4.5-17.6h-4.2v-3h-7.8v2.1h7.3v11.9h-7.3v2
			h7.4v2.7h-7.4V73.8z M243.8,59.3v-2.4h-4.2v2.4H243.8z M239.6,61.6V64h4.2v-2.4H239.6z"/>
		<path class="st0" d="M282.5,63.6c-1.5,0.5-3.1,1-4.6,1.5v14.1h-3.4V66.2l-6.2,1.9l-0.9-3.5c2-0.5,4.5-1.2,7.1-1.9v-8.3h-3.2
			c-0.5,2.1-1,4-1.6,5.5c-0.6-0.5-1.9-1.3-2.7-1.7c1.4-3.2,2.1-8.2,2.5-12.9l3.1,0.5c-0.2,1.7-0.4,3.4-0.6,5h2.5v-7.8h3.4v7.8h3.7
			v3.5h-3.7v7.3l4.1-1.2L282.5,63.6z M303.4,49.4c0,0,0,1.3,0,1.7c-0.9,17.7-1.6,23.9-3.2,25.9c-0.8,1.2-1.6,1.5-2.9,1.7
			c-1.1,0.2-2.7,0.2-4.5,0.1c0-1.1-0.4-2.6-1-3.6c1.7,0.2,3.1,0.2,3.9,0.2c0.6,0,1-0.2,1.4-0.7c1.1-1.3,2-6.9,2.7-21.9h-1.1
			c-2,10.2-6.2,20.5-12.6,25.7c-0.7-0.7-2-1.6-3-2.2c6.4-4.5,10.5-14,12.5-23.5h-2.6c-1.7,6.6-5.2,13.8-9.3,17.6
			c-0.7-0.7-1.9-1.6-2.8-2.1c4.1-3.2,7.3-9.4,9.1-15.5H287c-1.2,2.8-2.6,5.3-4.3,7.3c-0.6-0.5-2.1-1.6-2.8-2.1
			c3.2-3.5,5.4-9.1,6.7-14.9l3.3,0.6c-0.4,2-1,3.9-1.6,5.7H303.4z"/>
		<path class="st0" d="M329.9,64.3v1.5h9.2v13.3h-3.4v-1.3h-21.6v1.3h-3.3V65.9h9.9v-1.5h-13.8v-2.4H343v2.4H329.9z M309.1,46.4
			h-1.2v-2.2h17.5v2.2H312v10.1c0,1.4,0.3,1.9,1.7,1.9h0.8h7.1c1.1,0,2.9,0,3.7-0.2c0.1,0.8,0.2,1.7,0.3,2.3
			c-0.7,0.2-2.3,0.2-3.8,0.2h-8.2c-3.4,0-4.4-1.1-4.4-4.2V46.4z M315.6,50c-0.4,0.6-0.9,1.1-1.3,1.6c-0.4-0.4-1.4-0.9-1.9-1.1
			c1.2-1.1,2.2-2.5,2.7-3.9l2.2,0.5c-0.2,0.4-0.3,0.7-0.5,1.1h7.3V50H320v1.8h4.7v1.9h-4.7c1.6,0.9,3.3,2.1,4.3,3l-1.5,1.7
			c-0.9-0.9-2.4-2-4-3c-0.8,1.1-2.2,2.2-4.5,3.2c-0.3-0.6-1-1.3-1.6-1.8c2.7-0.7,3.9-1.9,4.4-3h-4.5v-1.9h4.9v0V50H315.6z
			 M335.7,75.8v-4.3h-0.2h-4.7c-3.1,0-3.8-0.5-3.8-2.7v-0.8h-3.5c-0.4,2-2.4,3.5-7.8,4.3c-0.3-0.6-1-1.6-1.6-2.1
			c4.2-0.4,5.8-1.2,6.4-2.2h-6.4v7.8H335.7z M317.2,72.6h16v1.9h-16V72.6z M327.1,64.3h-3.4v1.5h3.4V64.3z M326.5,51.9
			c-0.4-0.7-1.4-1.7-1.9-2.1c3-1.1,3.5-2.4,3.5-3.7v-2h9.8v3.3c0,0.7,0.1,1,0.6,1h1.6c0.5,0,1.3-0.1,1.7-0.2
			c0.1,0.7,0.2,1.7,0.2,2.4c-0.4,0.2-1.1,0.2-1.8,0.2h-2.1c-2.5,0-3-1-3-3.5v-0.7H331c-0.1,1.7-0.8,3.4-3.2,4.8h9.9l0.6-0.1l1.8,0.7
			c-0.9,2.2-2.2,3.9-3.9,5.3c1.8,0.8,3.5,1.6,4.7,2.2l-1.3,2.1c-1.4-0.7-3.4-1.7-5.6-2.8c-2.1,1.3-4.5,2.1-6.9,2.8
			c-0.3-0.7-1-1.7-1.5-2.2c1.9-0.4,3.8-1,5.5-1.8c-1.5-0.7-3-1.3-4.4-1.9l1.3-1.9c1.7,0.6,3.7,1.4,5.6,2.2c1.1-0.8,2-1.7,2.7-2.6
			h-9.6V51.9z M329.9,67.9v0.8c0,0.7,0.2,0.9,1.3,0.9h3.9c0.3,0,0.4,0,0.6,0v-1.7H329.9z"/>
		<path class="st0" d="M359.6,45.9c-1.1,3.2-2.5,7.1-3.7,10.1c2.6,3.2,3.2,6,3.2,8.4c0,2.3-0.5,3.9-1.6,4.8
			c-0.6,0.4-1.3,0.7-2.1,0.8c-0.7,0.1-1.7,0.1-2.6,0.1c0-0.9-0.3-2.3-0.8-3.2c0.8,0,1.5,0.1,2,0c0.5,0,0.8-0.1,1.1-0.3
			c0.6-0.4,0.8-1.4,0.8-2.6c0-2-0.6-4.7-3.2-7.6c1-2.6,2.1-5.9,2.8-8.5h-4.3v31.2h-3.2V44.7h8.8l0.5-0.2L359.6,45.9z M378.7,75.6
			c0.8,0,0.9-0.6,1-4.9c0.7,0.6,2.2,1.1,3.1,1.3c-0.3,5.3-1.1,6.6-3.7,6.6h-3.2c-3,0-3.7-1-3.7-4.3v-9.3h-3.4
			c-0.6,6.9-2.5,11.5-10,14.1c-0.4-0.9-1.3-2.2-2.1-2.9c6.5-2.1,8-5.6,8.5-11.2h-5.1v-3.3h22.2v3.3h-6.6v9.3c0,1.1,0.1,1.2,0.9,1.2
			H378.7z M363.1,55H360v-7.3h9.6c-0.5-1.3-1.2-2.9-1.9-4.1l3.4-1c0.9,1.6,2,3.7,2.4,5h8.6V55H379v3h-15.9V55z M363.3,51v3.9h15.2
			V51H363.3z"/>
		<path class="st0" d="M398.1,64.1l0.9,3.2c-4.1,2-8.6,4-12,5.6l-1.5-3.7c1.4-0.5,3.2-1.2,5.2-2.1V55.8h-4.5v-3.5h4.5v-8.8h3.4v8.8
			h4v3.5h-4v9.9L398.1,64.1z M416,75.2c2.2,0,2.6-1,2.9-5.3c0.8,0.6,2.2,1.1,3.2,1.3c-0.5,5.4-1.6,7.2-5.9,7.2h-9.1
			c-4.9,0-6.2-1.2-6.2-6V61.1l-2.7,1.2l-1.4-3.3l4.1-1.7V46.8h3.5v9l4.4-1.9V43.1h3.4v9.4l5.3-2.2l2.7,0.9l-0.2,0.6
			c-0.3,5.5-0.9,12.7-1.9,17.2l-3-0.8c0.6-3.4,1-8.9,1.2-13.7l-4.2,1.8v14.2h-3.4V57.7l-4.4,1.9v12.9c0,2.2,0.4,2.6,3,2.6H416z"/>
		<path class="st0" d="M459.9,44.5v34.7h-3.5v-1.5h-26v1.5h-3.4V44.5H459.9z M456.3,74.7V47.6h-26v27.1H456.3z M454.8,56.9V59h-23
			v-2.1h9.7v-1.5h-6.2v-6.2h15.6v6.2h-6.4v1.5H454.8z M434.2,60.4h18.2V73h-18.2V60.4z M437,70.8h12.3v-8.2H437V70.8z M438.4,53.3
			h9.5v-2.1h-9.5V53.3z M439.1,64h8.2v5.3h-8.2V64z M441.2,67.6h3.8v-1.9h-3.8V67.6z"/>
	</g>
</g>
<g>
	<path class="st0" d="M157.3,91.4h-4.2v-1.9h10.7v1.9h-4.2v12.4h-2.3V91.4z"/>
	<path class="st0" d="M163.9,101c0-2.3,1.9-3.5,6.4-4c0-1.2-0.5-2.3-2-2.3c-1.1,0-2.2,0.5-3.1,1.1l-0.8-1.5c1.1-0.7,2.6-1.4,4.3-1.4
		c2.7,0,3.9,1.7,3.9,4.5v6.4h-1.8l-0.2-1.2h-0.1c-1,0.8-2.1,1.5-3.4,1.5C165.2,104.1,163.9,102.9,163.9,101z M170.3,101.1v-2.6
		c-3.2,0.4-4.2,1.2-4.2,2.4c0,1.1,0.7,1.5,1.7,1.5C168.7,102.3,169.4,101.9,170.3,101.1z"/>
	<path class="st0" d="M175.5,89.8c0-0.8,0.6-1.3,1.4-1.3s1.4,0.5,1.4,1.3c0,0.8-0.6,1.3-1.4,1.3S175.5,90.6,175.5,89.8z M175.7,93.1
		h2.2v10.7h-2.2V93.1z"/>
	<path class="st0" d="M180.6,98.5c0-3.6,2.5-5.6,5.3-5.6c1.4,0,2.4,0.5,3.1,1.2l-1.1,1.5c-0.6-0.5-1.2-0.8-1.9-0.8
		c-1.8,0-3.1,1.5-3.1,3.8c0,2.3,1.2,3.8,3,3.8c0.9,0,1.7-0.4,2.3-1l0.9,1.5c-1,0.9-2.3,1.3-3.5,1.3
		C182.8,104.1,180.6,102.1,180.6,98.5z"/>
	<path class="st0" d="M191.4,88.3h2.2v4.1l-0.1,2.1c0.9-0.9,2-1.7,3.5-1.7c2.3,0,3.3,1.5,3.3,4.2v6.7H198v-6.5
		c0-1.8-0.5-2.6-1.8-2.6c-1,0-1.7,0.5-2.6,1.5v7.6h-2.2V88.3z"/>
	<path class="st0" d="M203.3,99.9v-6.7h2.2v6.5c0,1.8,0.5,2.6,1.8,2.6c1,0,1.7-0.5,2.6-1.6v-7.4h2.2v10.7h-1.8l-0.2-1.6h-0.1
		c-1,1.1-2,1.9-3.5,1.9C204.3,104.1,203.3,102.6,203.3,99.9z"/>
	<path class="st0" d="M215.5,93.1h1.8l0.2,1.5h0.1c1-1,2.1-1.8,3.5-1.8c2.3,0,3.3,1.5,3.3,4.2v6.7h-2.2v-6.5c0-1.8-0.5-2.6-1.8-2.6
		c-1,0-1.7,0.5-2.6,1.5v7.6h-2.2V93.1z"/>
	<path class="st0" d="M226.9,105.8c0-0.9,0.6-1.7,1.6-2.3v-0.1c-0.5-0.3-1-0.9-1-1.8c0-0.8,0.6-1.6,1.2-2v-0.1
		c-0.7-0.6-1.4-1.6-1.4-2.9c0-2.4,1.9-3.8,4.1-3.8c0.6,0,1.1,0.1,1.6,0.3h3.8v1.7h-2c0.4,0.4,0.7,1.1,0.7,2c0,2.3-1.8,3.7-4,3.7
		c-0.5,0-1-0.1-1.5-0.3c-0.4,0.3-0.6,0.6-0.6,1.1c0,0.6,0.4,1.1,1.8,1.1h2c2.5,0,3.9,0.8,3.9,2.6c0,2.1-2.2,3.7-5.6,3.7
		C228.8,108.7,226.9,107.7,226.9,105.8z M234.8,105.3c0-0.9-0.7-1.2-2-1.2h-1.6c-0.5,0-1-0.1-1.4-0.2c-0.6,0.5-0.9,1-0.9,1.6
		c0,1.1,1.1,1.7,2.9,1.7C233.5,107.2,234.8,106.3,234.8,105.3z M233.5,96.7c0-1.4-0.9-2.3-2-2.3s-2,0.8-2,2.3s0.9,2.3,2,2.3
		S233.5,98.2,233.5,96.7z"/>
	<path class="st0" d="M241.6,89.5h2.4l2.1,7.4c0.5,1.6,0.8,3,1.3,4.7h0.1c0.5-1.7,0.8-3.1,1.3-4.7l2.1-7.4h2.3l-4.5,14.3h-2.7
		L241.6,89.5z"/>
	<path class="st0" d="M253.8,98.5c0-3.5,2.4-5.6,4.9-5.6c2.8,0,4.4,2,4.4,5.1c0,0.4-0.1,0.9-0.1,1.1h-7c0.2,2,1.5,3.3,3.3,3.3
		c1,0,1.8-0.3,2.6-0.8l0.8,1.4c-1,0.7-2.2,1.1-3.6,1.1C256.1,104.1,253.8,102,253.8,98.5z M261.1,97.5c0-1.8-0.8-2.9-2.4-2.9
		c-1.3,0-2.5,1-2.7,2.9H261.1z"/>
	<path class="st0" d="M265.7,100.4v-5.4h-1.6v-1.7l1.7-0.1l0.3-3h1.9v3h2.8v1.8h-2.8v5.4c0,1.3,0.4,1.9,1.6,1.9
		c0.4,0,0.8-0.1,1.1-0.3l0.4,1.7c-0.6,0.2-1.3,0.4-2.1,0.4C266.5,104.1,265.7,102.6,265.7,100.4z"/>
	<path class="st0" d="M271.9,98.5c0-3.5,2.4-5.6,4.9-5.6c2.8,0,4.4,2,4.4,5.1c0,0.4-0.1,0.9-0.1,1.1h-7c0.2,2,1.5,3.3,3.3,3.3
		c1,0,1.8-0.3,2.6-0.8l0.8,1.4c-1,0.7-2.2,1.1-3.6,1.1C274.3,104.1,271.9,102,271.9,98.5z M279.3,97.5c0-1.8-0.8-2.9-2.4-2.9
		c-1.3,0-2.5,1-2.7,2.9H279.3z"/>
	<path class="st0" d="M283.7,93.1h1.8l0.2,1.9h0.1c0.8-1.4,1.9-2.2,3-2.2c0.5,0,0.9,0.1,1.2,0.2l-0.4,1.9c-0.4-0.1-0.6-0.2-1.1-0.2
		c-0.9,0-1.9,0.6-2.6,2.3v6.7h-2.2V93.1z"/>
	<path class="st0" d="M291.4,89.8c0-0.8,0.6-1.3,1.4-1.3s1.4,0.5,1.4,1.3c0,0.8-0.6,1.3-1.4,1.3S291.4,90.6,291.4,89.8z M291.7,93.1
		h2.2v10.7h-2.2V93.1z"/>
	<path class="st0" d="M297.3,93.1h1.8l0.2,1.5h0.1c1-1,2.1-1.8,3.5-1.8c2.3,0,3.3,1.5,3.3,4.2v6.7h-2.2v-6.5c0-1.8-0.5-2.6-1.8-2.6
		c-1,0-1.7,0.5-2.6,1.5v7.6h-2.2V93.1z"/>
	<path class="st0" d="M308.8,101c0-2.3,1.9-3.5,6.4-4c0-1.2-0.5-2.3-2-2.3c-1.1,0-2.2,0.5-3.1,1.1l-0.8-1.5c1.1-0.7,2.6-1.4,4.3-1.4
		c2.7,0,3.9,1.7,3.9,4.5v6.4h-1.8l-0.2-1.2h-0.1c-1,0.8-2.1,1.5-3.4,1.5C310.1,104.1,308.8,102.9,308.8,101z M315.2,101.1v-2.6
		c-3.2,0.4-4.2,1.2-4.2,2.4c0,1.1,0.7,1.5,1.7,1.5C313.5,102.3,314.3,101.9,315.2,101.1z"/>
	<path class="st0" d="M320.6,93.1h1.8l0.2,1.9h0.1c0.8-1.4,1.9-2.2,3-2.2c0.5,0,0.9,0.1,1.2,0.2l-0.4,1.9c-0.4-0.1-0.6-0.2-1.1-0.2
		c-0.9,0-1.9,0.6-2.6,2.3v6.7h-2.2V93.1z"/>
	<path class="st0" d="M328.1,108.1l0.4-1.8c0.2,0.1,0.5,0.2,0.8,0.2c1.2,0,1.8-0.9,2.2-2l0.2-0.7l-4.2-10.6h2.3l2,5.5
		c0.3,1,0.6,2,1,3h0.1c0.3-1,0.6-2,0.8-3l1.7-5.5h2.2l-3.9,11.4c-0.8,2.3-2,3.8-4.2,3.8C328.9,108.3,328.5,108.3,328.1,108.1z"/>
	<path class="st0" d="M344.1,89.5h2.3v5.9h6.1v-5.9h2.3v14.3h-2.3v-6.5h-6.1v6.5h-2.3V89.5z"/>
	<path class="st0" d="M357.6,98.5c0-3.6,2.4-5.6,5-5.6c2.6,0,5,2.1,5,5.6c0,3.6-2.4,5.6-5,5.6C360,104.1,357.6,102.1,357.6,98.5z
		 M365.4,98.5c0-2.3-1.1-3.8-2.7-3.8c-1.7,0-2.7,1.5-2.7,3.8c0,2.3,1.1,3.8,2.7,3.8C364.3,102.3,365.4,100.8,365.4,98.5z"/>
	<path class="st0" d="M369.1,102.6l1.1-1.4c1,0.7,1.9,1.2,3,1.2c1.3,0,1.9-0.6,1.9-1.4c0-1-1.2-1.4-2.4-1.8c-1.4-0.5-3-1.3-3-3.1
		c0-1.8,1.4-3.1,3.8-3.1c1.4,0,2.6,0.6,3.5,1.3l-1.1,1.4c-0.7-0.5-1.5-0.9-2.4-0.9c-1.2,0-1.7,0.6-1.7,1.3c0,0.9,1.1,1.3,2.2,1.7
		c1.5,0.6,3.2,1.2,3.2,3.3c0,1.8-1.4,3.3-4.1,3.3C371.7,104.1,370.2,103.5,369.1,102.6z"/>
	<path class="st0" d="M379.6,93.1h1.8l0.2,1.2h0.1c0.9-0.8,2.1-1.4,3.3-1.4c2.7,0,4.2,2.2,4.2,5.5c0,3.7-2.2,5.8-4.6,5.8
		c-1,0-1.9-0.4-2.8-1.2l0.1,1.8v3.5h-2.2V93.1z M386.9,98.4c0-2.2-0.7-3.6-2.5-3.6c-0.8,0-1.6,0.4-2.5,1.3v5.2c0.8,0.7,1.7,1,2.3,1
		C385.7,102.3,386.9,100.9,386.9,98.4z"/>
	<path class="st0" d="M391.6,89.8c0-0.8,0.6-1.3,1.4-1.3s1.4,0.5,1.4,1.3c0,0.8-0.6,1.3-1.4,1.3S391.6,90.6,391.6,89.8z M391.9,93.1
		h2.2v10.7h-2.2V93.1z"/>
	<path class="st0" d="M397.8,100.4v-5.4h-1.6v-1.7l1.7-0.1l0.3-3h1.9v3h2.8v1.8H400v5.4c0,1.3,0.4,1.9,1.6,1.9
		c0.4,0,0.8-0.1,1.1-0.3l0.4,1.7c-0.6,0.2-1.3,0.4-2.1,0.4C398.6,104.1,397.8,102.6,397.8,100.4z"/>
	<path class="st0" d="M404.1,101c0-2.3,1.9-3.5,6.4-4c0-1.2-0.5-2.3-2-2.3c-1.1,0-2.2,0.5-3.1,1.1l-0.8-1.5c1.1-0.7,2.6-1.4,4.3-1.4
		c2.7,0,3.9,1.7,3.9,4.5v6.4h-1.8l-0.2-1.2h-0.1c-1,0.8-2.1,1.5-3.4,1.5C405.4,104.1,404.1,102.9,404.1,101z M410.5,101.1v-2.6
		c-3.2,0.4-4.2,1.2-4.2,2.4c0,1.1,0.7,1.5,1.7,1.5C408.8,102.3,409.6,101.9,410.5,101.1z"/>
	<path class="st0" d="M415.9,101.3v-13h2.2v13.1c0,0.6,0.3,0.8,0.5,0.8c0.1,0,0.2,0,0.4,0l0.3,1.7c-0.3,0.1-0.6,0.2-1.2,0.2
		C416.5,104.1,415.9,103.1,415.9,101.3z"/>
	<path class="st0" d="M426.3,89.5h2.6l2.6,7.3c0.3,1,0.6,1.9,1,2.9h0.1c0.3-1,0.6-1.9,0.9-2.9l2.6-7.3h2.6v14.3h-2.1v-7.1
		c0-1.3,0.2-3.1,0.3-4.4h-0.1l-1.1,3.3l-2.5,6.8h-1.4l-2.5-6.8l-1.1-3.3H428c0.1,1.3,0.3,3.2,0.3,4.4v7.1h-2V89.5z"/>
	<path class="st0" d="M441.6,101c0-2.3,1.9-3.5,6.4-4c0-1.2-0.5-2.3-2-2.3c-1.1,0-2.2,0.5-3.1,1.1l-0.8-1.5c1.1-0.7,2.6-1.4,4.3-1.4
		c2.7,0,3.9,1.7,3.9,4.5v6.4h-1.8l-0.2-1.2h-0.1c-1,0.8-2.1,1.5-3.4,1.5C442.9,104.1,441.6,102.9,441.6,101z M448,101.1v-2.6
		c-3.2,0.4-4.2,1.2-4.2,2.4c0,1.1,0.7,1.5,1.7,1.5C446.4,102.3,447.1,101.9,448,101.1z"/>
	<path class="st0" d="M453.4,93.1h1.8l0.2,1.2h0.1c0.9-0.8,2.1-1.4,3.3-1.4c2.7,0,4.2,2.2,4.2,5.5c0,3.7-2.2,5.8-4.6,5.8
		c-1,0-1.9-0.4-2.8-1.2l0.1,1.8v3.5h-2.2V93.1z M460.7,98.4c0-2.2-0.7-3.6-2.5-3.6c-0.8,0-1.6,0.4-2.5,1.3v5.2c0.8,0.7,1.7,1,2.3,1
		C459.5,102.3,460.7,100.9,460.7,98.4z"/>
</g>
</svg>
